# xmcd
#
# Track frame offsets: 
#        150
#        12546
#        29044
#        45720
#        62007
#        77150
#        97959
#        111683
#        130855
#        145364
#        163505
#        183006
#
# Disc length: 2704 seconds
#
# Revision: 0
# Processed by: cddbd v1.5.2PL0 Copyright (c) Steve Scherf et al.
# Submitted via: ExactAudioCopy v0.95a5
#
DISCID=a60a8e0c
DTITLE=George Canyon - Somebody Wrote Love
DYEAR=2006
DGENRE=Country
TTITLE0=Time For Goodbye
TTITLE1=Somebody Wrote Love
TTITLE2=Coming From You
TTITLE3=Your Smile
TTITLE4=Drinkin' Thinkin'
TTITLE5=I Want You To Live
TTITLE6=Happy Man
TTITLE7=Madi's Song (The Man She Thinks I Am)
TTITLE8=Ladders To Climb
TTITLE9=Some People Change
TTITLE10=Quitters
TTITLE11=The Hard Times
EXTD=
EXTT0=
EXTT1=
EXTT2=
EXTT3=
EXTT4=
EXTT5=
EXTT6=
EXTT7=
EXTT8=
EXTT9=
EXTT10=
EXTT11=
PLAYORDER=
